<?xml version="1.0" encoding="utf-8"?>
<svg xmlns="http://www.w3.org/2000/svg" xmlns:xlink="http://www.w3.org/1999/xlink" version="1.1" width="650" height="520" viewBox="0 0 650 520" xml:space="preserve">
<desc>Created with Fabric.js 2.2.0</desc>
<defs>
</defs>
<rect id="background-logo" x="-325" y="-260" rx="0" ry="0" width="650" height="520" style="stroke: none; stroke-width: 1; stroke-dasharray: none; stroke-linecap: butt; stroke-linejoin: miter; stroke-miterlimit: 10; fill : rgb(255,255,255); fill-rule: nonzero; opacity: 1;" transform="translate(325 260)" />
<g id="logo-logo" transform="translate(325 205.6581)" style="">
	<path d="m 1500 2278.01 c -357.91 0 -780.273 232.91 -1001.672 523.64 c 24.695 -449.57 449.875 -597.41 658.302 -776.57 c 109.43 -94.04 203.16 -248.93 279.09 -611.11 c 18.11 -86.39 37.71 -179.9 64.28 -281.04 c 26.57 101.14 46.19 194.65 64.3 281.04 c 75.91 362.18 169.65 517.07 279.09 611.11 c 208.42 179.16 633.58 327 658.29 776.57 C 2280.27 2510.92 1857.91 2278.01 1500 2278.01" style="stroke: none; stroke-width: 1; stroke-dasharray: none; stroke-linecap: butt; stroke-linejoin: miter; stroke-miterlimit: 10; fill: rgb(255,91,0); fill-rule: evenodd; opacity: 1;" transform="translate(0 -22.5857) scale(0.1338 0.1338) matrix(1 0 0 -1 0 0) translate(-1500.004, -1967.29) " stroke-linecap="round" />
	<path d="m 1028.64 2024.75 c 111.89 -61.84 203.73 -206.47 243.83 -318.59 c -95.6 20.36 -210.02 83.75 -302.392 147.25 c 25.945 -345.55 214.892 -740.55 529.922 -935.012 c 142.58 242.132 178.18 604.412 242.32 788.082 c 104.29 32.16 221.31 86.04 315.79 169.6 c -41.64 29.65 -119.27 60.82 -180.18 80.72 c 20 21.28 61.58 52.67 93.28 67.93 c 63.9 -20.14 123.18 -48.23 176.97 -80.15 C 2142.83 1514.17 1905.9 1003.68 1500 795.199 C 1078.08 1003.95 857.102 1513.95 851.824 1944.23 c 0 0.04 0 0.34 -0.004 0.35 c 0.09 0.06 0.2 0.11 0.289 0.15 c 55.11 28.73 113.504 54.71 176.531 80.02" style="stroke: none; stroke-width: 1; stroke-dasharray: none; stroke-linecap: butt; stroke-linejoin: miter; stroke-miterlimit: 10; fill: rgb(173,190,288); fill-rule: evenodd; opacity: 1;" transform="translate(-0.0005 51.9661) scale(0.1338 0.1338) matrix(1 0 0 -1 0 0) translate(-1500, -1409.9744999999998) " stroke-linecap="round" />
</g>
</svg>